<svg width="1426" height="921" viewBox="0 0 1426 921" fill="none" xmlns="http://www.w3.org/2000/svg">
<rect width="1426" height="921" fill="#F5F5F5"/>
<rect width="270" height="270" transform="translate(0 409)" fill="white"/>
<g clip-path="url(#clip0_0_1)">
<mask id="mask0_0_1" style="mask-type:luminance" maskUnits="userSpaceOnUse" x="13" y="409" width="243" height="270">
<path d="M255.785 409H13V679H255.785V409Z" fill="white"/>
</mask>
<g mask="url(#mask0_0_1)">
<path d="M117.82 674.293L93.0458 659.992V612.311L134.393 635.133L175.739 612.311V659.992L150.966 674.293C145.928 677.205 140.212 678.738 134.393 678.737C128.574 678.738 122.858 677.205 117.82 674.293ZM223.632 498.809C223.633 497.555 223.303 496.323 222.676 495.237C222.049 494.15 221.147 493.248 220.06 492.622C218.974 491.995 217.742 491.665 216.488 491.666C215.234 491.666 214.002 491.997 212.916 492.625L134.453 536.895L55.8668 492.626C54.7811 491.998 53.5493 491.668 52.2953 491.667C51.0413 491.667 49.8093 491.997 48.7232 492.624C47.6371 493.25 46.7352 494.152 46.1081 495.238C45.481 496.324 45.151 497.556 45.151 498.81V632.344L29.8353 623.502C24.7988 620.591 20.6164 616.407 17.7078 611.37C14.7991 606.332 13.2665 600.618 13.2637 594.801V493.199C13.2664 487.381 14.7991 481.667 17.7081 476.629C20.617 471.591 24.7999 467.407 29.8368 464.496L117.821 413.706C122.858 410.795 128.574 409.262 134.393 409.262C140.212 409.262 145.928 410.795 150.966 413.706L238.95 464.496C243.987 467.406 248.171 471.59 251.08 476.628C253.989 481.667 255.521 487.381 255.523 493.199V594.801C255.52 600.618 253.987 606.332 251.078 611.37C248.169 616.407 243.985 620.591 238.948 623.5L223.632 632.342V498.809Z" fill="#44C9F6"/>
</g>
</g>
<path d="M137 325.373C137 324.268 136.105 323.373 135 323.373C133.895 323.373 133 324.268 133 325.373L137 325.373ZM133.586 358.787C134.367 359.568 135.633 359.568 136.414 358.787L149.142 346.059C149.923 345.278 149.923 344.012 149.142 343.231C148.361 342.45 147.095 342.45 146.314 343.231L135 354.544L123.686 343.231C122.905 342.45 121.639 342.45 120.858 343.231C120.077 344.012 120.077 345.278 120.858 346.059L133.586 358.787ZM133 325.373L133 357.373L137 357.373L137 325.373L133 325.373Z" fill="black"/>
<g clip-path="url(#clip1_0_1)">
<rect width="512" height="512" transform="translate(330 409)" fill="white"/>
<mask id="mask1_0_1" style="mask-type:luminance" maskUnits="userSpaceOnUse" x="354" y="409" width="462" height="512">
<path d="M815.044 409H354.652V921H815.044V409Z" fill="white"/>
</mask>
<g mask="url(#mask1_0_1)">
<path d="M553.422 912.074L506.442 884.955V794.538L584.849 837.815L663.253 794.538V884.955L616.276 912.074C606.723 917.596 595.883 920.503 584.849 920.501C573.814 920.503 562.975 917.596 553.422 912.074ZM754.073 579.304C754.074 576.926 753.449 574.59 752.26 572.53C751.071 570.47 749.36 568.76 747.299 567.572C745.24 566.383 742.903 565.757 740.525 565.758C738.147 565.759 735.811 566.387 733.752 567.577L584.963 651.527L435.94 567.579C433.881 566.389 431.545 565.763 429.167 565.762C426.789 565.761 424.453 566.387 422.394 567.575C420.334 568.764 418.624 570.474 417.435 572.533C416.245 574.592 415.62 576.928 415.62 579.306V832.526L386.577 815.759C377.026 810.239 369.095 802.305 363.579 792.753C358.064 783.2 355.157 772.365 355.152 761.334V568.666C355.157 557.634 358.064 546.798 363.58 537.244C369.096 527.691 377.028 519.756 386.579 514.236L553.424 417.925C562.975 412.404 573.814 409.497 584.849 409.497C595.883 409.497 606.723 412.404 616.276 417.925L783.12 514.236C792.672 519.755 800.606 527.69 806.122 537.243C811.638 546.797 814.544 557.634 814.547 568.666V761.334C814.542 772.365 811.635 783.2 806.118 792.753C800.602 802.305 792.668 810.239 783.116 815.756L754.073 832.523V579.304Z" fill="#44C9F6"/>
</g>
</g>
<g clip-path="url(#clip2_0_1)">
<rect width="192" height="192" transform="translate(902 409)" fill="white"/>
<g clip-path="url(#clip3_0_1)">
<mask id="mask2_0_1" style="mask-type:luminance" maskUnits="userSpaceOnUse" x="911" y="409" width="173" height="192">
<path d="M1083.89 409H911.244V601H1083.89V409Z" fill="white"/>
</mask>
<g mask="url(#mask2_0_1)">
<path d="M985.783 597.653L968.166 587.483V553.577L997.568 569.806L1026.97 553.577V587.483L1009.35 597.653C1005.77 599.724 1001.71 600.814 997.568 600.813C993.43 600.814 989.366 599.724 985.783 597.653ZM1061.03 472.864C1061.03 471.972 1060.79 471.096 1060.35 470.324C1059.9 469.551 1059.26 468.91 1058.49 468.464C1057.71 468.019 1056.84 467.784 1055.95 467.784C1055.06 467.785 1054.18 468.02 1053.41 468.466L997.611 499.948L941.727 468.467C940.955 468.021 940.079 467.786 939.188 467.786C938.296 467.785 937.42 468.02 936.648 468.466C935.875 468.911 935.234 469.553 934.788 470.325C934.342 471.097 934.107 471.973 934.107 472.865V567.822L923.216 561.535C919.635 559.465 916.661 556.489 914.592 552.908C912.524 549.325 911.434 545.262 911.432 541.125V468.875C911.434 464.738 912.524 460.674 914.592 457.092C916.661 453.509 919.635 450.534 923.217 448.464L985.784 412.347C989.366 410.276 993.43 409.186 997.568 409.186C1001.71 409.186 1005.77 410.276 1009.35 412.347L1071.92 448.464C1075.5 450.533 1078.48 453.509 1080.55 457.091C1082.61 460.674 1083.7 464.738 1083.71 468.875V541.125C1083.7 545.262 1082.61 549.325 1080.54 552.908C1078.48 556.489 1075.5 559.465 1071.92 561.533L1061.03 567.821V472.864Z" fill="#44C9F6"/>
</g>
</g>
</g>
<rect width="180" height="180" transform="translate(1154 409)" fill="white"/>
<rect width="132" height="132" transform="translate(1178 433)" fill="white"/>
<g clip-path="url(#clip4_0_1)">
<mask id="mask3_0_1" style="mask-type:luminance" maskUnits="userSpaceOnUse" x="1184" y="433" width="120" height="132">
<path d="M1303.05 433H1184.36V565H1303.05V433Z" fill="white"/>
</mask>
<g mask="url(#mask3_0_1)">
<path d="M1235.6 562.699L1223.49 555.707V532.396L1243.7 543.554L1263.92 532.396V555.707L1251.81 562.699C1249.34 564.122 1246.55 564.872 1243.7 564.871C1240.86 564.872 1238.06 564.122 1235.6 562.699ZM1287.33 476.907C1287.33 476.293 1287.17 475.691 1286.86 475.16C1286.56 474.629 1286.12 474.188 1285.58 473.882C1285.05 473.575 1284.45 473.414 1283.84 473.414C1283.23 473.415 1282.62 473.576 1282.09 473.883L1243.73 495.526L1205.31 473.884C1204.78 473.577 1204.18 473.415 1203.57 473.415C1202.95 473.415 1202.35 473.576 1201.82 473.883C1201.29 474.189 1200.85 474.63 1200.54 475.161C1200.24 475.692 1200.07 476.294 1200.07 476.907V542.19L1192.59 537.868C1190.12 536.444 1188.08 534.399 1186.66 531.936C1185.24 529.473 1184.49 526.68 1184.48 523.836V474.164C1184.49 471.32 1185.24 468.526 1186.66 466.063C1188.08 463.6 1190.12 461.554 1192.59 460.131L1235.6 435.301C1238.06 433.878 1240.86 433.128 1243.7 433.128C1246.55 433.128 1249.34 433.878 1251.81 435.301L1294.82 460.131C1297.28 461.554 1299.33 463.6 1300.75 466.063C1302.17 468.526 1302.92 471.32 1302.92 474.164V523.836C1302.92 526.68 1302.17 529.473 1300.75 531.936C1299.33 534.399 1297.28 536.444 1294.82 537.867L1287.33 542.189V476.907Z" fill="#44C9F6"/>
</g>
</g>
<g clip-path="url(#clip5_0_1)">
<rect width="32" height="32" transform="translate(1394 409)" fill="white"/>
<g clip-path="url(#clip6_0_1)">
<mask id="mask4_0_1" style="mask-type:luminance" maskUnits="userSpaceOnUse" x="1395" y="409" width="30" height="32">
<path d="M1424.32 409H1395.54V441H1424.32V409Z" fill="white"/>
</mask>
<g mask="url(#mask4_0_1)">
<path d="M1407.96 440.442L1405.03 438.747V433.096L1409.93 435.801L1414.83 433.096V438.747L1411.89 440.442C1411.3 440.787 1410.62 440.969 1409.93 440.969C1409.24 440.969 1408.56 440.787 1407.96 440.442ZM1420.5 419.644C1420.5 419.495 1420.47 419.349 1420.39 419.221C1420.32 419.092 1420.21 418.985 1420.08 418.911C1419.95 418.836 1419.81 418.797 1419.66 418.797C1419.51 418.797 1419.36 418.837 1419.23 418.911L1409.94 424.158L1400.62 418.911C1400.49 418.837 1400.35 418.798 1400.2 418.798C1400.05 418.798 1399.9 418.837 1399.77 418.911C1399.65 418.985 1399.54 419.092 1399.46 419.221C1399.39 419.35 1399.35 419.496 1399.35 419.644V435.47L1397.54 434.422C1396.94 434.077 1396.44 433.582 1396.1 432.985C1395.75 432.387 1395.57 431.71 1395.57 431.021V418.979C1395.57 418.29 1395.75 417.612 1396.1 417.015C1396.44 416.418 1396.94 415.922 1397.54 415.577L1407.96 409.558C1408.56 409.213 1409.24 409.031 1409.93 409.031C1410.62 409.031 1411.3 409.213 1411.89 409.558L1422.32 415.577C1422.92 415.922 1423.41 416.418 1423.76 417.015C1424.1 417.612 1424.28 418.29 1424.28 418.979V431.021C1424.28 431.71 1424.1 432.387 1423.76 432.985C1423.41 433.582 1422.92 434.077 1422.32 434.422L1420.5 435.47V419.644Z" fill="#44C9F6"/>
</g>
</g>
</g>
<path d="M23.965 217.243V243.425H20.7945V220.567H20.6411L14.2491 224.811V221.59L20.7945 217.243H23.965ZM37.0463 243.63C36.4156 243.63 35.8744 243.404 35.4227 242.952C34.971 242.5 34.7451 241.959 34.7451 241.328C34.7451 240.698 34.971 240.157 35.4227 239.705C35.8744 239.253 36.4156 239.027 37.0463 239.027C37.677 239.027 38.2182 239.253 38.6699 239.705C39.1216 240.157 39.3474 240.698 39.3474 241.328C39.3474 241.746 39.2409 242.13 39.0278 242.479C38.8233 242.828 38.5463 243.11 38.1969 243.323C37.8559 243.527 37.4724 243.63 37.0463 243.63ZM58.2443 243.425H54.9205L64.5341 217.243H67.8068L77.4205 243.425H74.0966L66.2727 221.385H66.0682L58.2443 243.425ZM59.4716 233.198H72.8693V236.01H59.4716V233.198ZM88.5043 243.834C86.8679 243.834 85.4233 243.421 84.1705 242.594C82.9176 241.759 81.9375 240.583 81.2301 239.066C80.5227 237.54 80.169 235.738 80.169 233.658C80.169 231.596 80.5227 229.806 81.2301 228.289C81.9375 226.772 82.9219 225.6 84.1832 224.773C85.4446 223.946 86.902 223.533 88.5554 223.533C89.8338 223.533 90.8438 223.746 91.5852 224.172C92.3352 224.59 92.9063 225.067 93.2983 225.604C93.6989 226.132 94.0099 226.567 94.2315 226.908H94.4872V217.243H97.5043V243.425H94.5895V240.408H94.2315C94.0099 240.766 93.6946 241.218 93.2855 241.763C92.8764 242.3 92.2926 242.782 91.5341 243.208C90.7756 243.625 89.7656 243.834 88.5043 243.834ZM88.9134 241.124C90.1236 241.124 91.1463 240.809 91.9815 240.178C92.8168 239.539 93.4517 238.657 93.8864 237.532C94.321 236.398 94.5384 235.09 94.5384 233.607C94.5384 232.141 94.3253 230.858 93.8991 229.759C93.473 228.651 92.8423 227.79 92.0071 227.176C91.1719 226.554 90.1406 226.243 88.9134 226.243C87.6349 226.243 86.5696 226.571 85.7173 227.228C84.8736 227.875 84.2386 228.757 83.8125 229.874C83.3949 230.982 83.1861 232.226 83.1861 233.607C83.1861 235.005 83.3991 236.274 83.8253 237.417C84.2599 238.55 84.8991 239.453 85.7429 240.127C86.5952 240.792 87.652 241.124 88.9134 241.124ZM110.864 243.834C109.227 243.834 107.783 243.421 106.53 242.594C105.277 241.759 104.297 240.583 103.589 239.066C102.882 237.54 102.528 235.738 102.528 233.658C102.528 231.596 102.882 229.806 103.589 228.289C104.297 226.772 105.281 225.6 106.543 224.773C107.804 223.946 109.261 223.533 110.915 223.533C112.193 223.533 113.203 223.746 113.945 224.172C114.695 224.59 115.266 225.067 115.658 225.604C116.058 226.132 116.369 226.567 116.591 226.908H116.847V217.243H119.864V243.425H116.949V240.408H116.591C116.369 240.766 116.054 241.218 115.645 241.763C115.236 242.3 114.652 242.782 113.893 243.208C113.135 243.625 112.125 243.834 110.864 243.834ZM111.273 241.124C112.483 241.124 113.506 240.809 114.341 240.178C115.176 239.539 115.811 238.657 116.246 237.532C116.68 236.398 116.898 235.09 116.898 233.607C116.898 232.141 116.685 230.858 116.259 229.759C115.832 228.651 115.202 227.79 114.366 227.176C113.531 226.554 112.5 226.243 111.273 226.243C109.994 226.243 108.929 226.571 108.077 227.228C107.233 227.875 106.598 228.757 106.172 229.874C105.754 230.982 105.545 232.226 105.545 233.607C105.545 235.005 105.759 236.274 106.185 237.417C106.619 238.55 107.259 239.453 108.102 240.127C108.955 240.792 110.011 241.124 111.273 241.124ZM137.876 250.789C137.365 250.789 136.909 250.746 136.509 250.661C136.108 250.584 135.831 250.507 135.678 250.431L136.445 247.772C137.178 247.959 137.825 248.027 138.388 247.976C138.95 247.925 139.449 247.674 139.884 247.222C140.327 246.779 140.732 246.059 141.098 245.061L141.661 243.527L134.399 223.789H137.672L143.092 239.436H143.297L148.717 223.789H151.99L143.655 246.289C143.28 247.303 142.815 248.142 142.261 248.807C141.707 249.48 141.064 249.979 140.331 250.303C139.607 250.627 138.788 250.789 137.876 250.789ZM163.246 243.834C161.474 243.834 159.918 243.412 158.58 242.569C157.251 241.725 156.211 240.544 155.461 239.027C154.719 237.51 154.349 235.738 154.349 233.709C154.349 231.664 154.719 229.878 155.461 228.353C156.211 226.827 157.251 225.642 158.58 224.799C159.918 223.955 161.474 223.533 163.246 223.533C165.019 223.533 166.57 223.955 167.9 224.799C169.238 225.642 170.278 226.827 171.019 228.353C171.769 229.878 172.144 231.664 172.144 233.709C172.144 235.738 171.769 237.51 171.019 239.027C170.278 240.544 169.238 241.725 167.9 242.569C166.57 243.412 165.019 243.834 163.246 243.834ZM163.246 241.124C164.593 241.124 165.701 240.779 166.57 240.088C167.44 239.398 168.083 238.49 168.501 237.365C168.918 236.24 169.127 235.022 169.127 233.709C169.127 232.397 168.918 231.174 168.501 230.04C168.083 228.907 167.44 227.99 166.57 227.292C165.701 226.593 164.593 226.243 163.246 226.243C161.9 226.243 160.792 226.593 159.923 227.292C159.053 227.99 158.41 228.907 157.992 230.04C157.575 231.174 157.366 232.397 157.366 233.709C157.366 235.022 157.575 236.24 157.992 237.365C158.41 238.49 159.053 239.398 159.923 240.088C160.792 240.779 161.9 241.124 163.246 241.124ZM189.125 235.397V223.789H192.142V243.425H189.125V240.101H188.92C188.46 241.098 187.744 241.946 186.772 242.645C185.801 243.336 184.574 243.681 183.091 243.681C181.863 243.681 180.772 243.412 179.818 242.875C178.863 242.33 178.113 241.512 177.568 240.421C177.022 239.321 176.75 237.936 176.75 236.266V223.789H179.767V236.061C179.767 237.493 180.167 238.635 180.968 239.488C181.778 240.34 182.809 240.766 184.062 240.766C184.812 240.766 185.575 240.574 186.35 240.191C187.135 239.807 187.791 239.219 188.319 238.426C188.856 237.634 189.125 236.624 189.125 235.397ZM197.668 243.425V223.789H200.582V226.755H200.787C201.145 225.783 201.793 224.995 202.73 224.39C203.668 223.784 204.724 223.482 205.901 223.482C206.122 223.482 206.399 223.486 206.732 223.495C207.064 223.503 207.315 223.516 207.486 223.533V226.601C207.384 226.576 207.149 226.537 206.783 226.486C206.425 226.426 206.045 226.397 205.645 226.397C204.69 226.397 203.838 226.597 203.088 226.997C202.347 227.39 201.759 227.935 201.324 228.634C200.898 229.324 200.685 230.113 200.685 230.999V243.425H197.668ZM221.187 243.425V223.789H224.204V243.425H221.187ZM222.721 220.516C222.133 220.516 221.626 220.316 221.2 219.915C220.782 219.515 220.574 219.033 220.574 218.471C220.574 217.908 220.782 217.426 221.2 217.026C221.626 216.625 222.133 216.425 222.721 216.425C223.309 216.425 223.812 216.625 224.23 217.026C224.656 217.426 224.869 217.908 224.869 218.471C224.869 219.033 224.656 219.515 224.23 219.915C223.812 220.316 223.309 220.516 222.721 220.516ZM237.707 243.834C235.866 243.834 234.281 243.399 232.952 242.53C231.622 241.661 230.599 240.463 229.884 238.938C229.168 237.412 228.81 235.669 228.81 233.709C228.81 231.715 229.176 229.955 229.909 228.429C230.651 226.895 231.682 225.698 233.003 224.837C234.332 223.968 235.884 223.533 237.656 223.533C239.037 223.533 240.281 223.789 241.389 224.3C242.497 224.811 243.405 225.527 244.112 226.448C244.82 227.368 245.259 228.442 245.429 229.669H242.412C242.182 228.774 241.67 227.982 240.878 227.292C240.094 226.593 239.037 226.243 237.707 226.243C236.531 226.243 235.5 226.55 234.614 227.164C233.736 227.769 233.05 228.625 232.555 229.733C232.07 230.833 231.827 232.124 231.827 233.607C231.827 235.124 232.065 236.445 232.543 237.57C233.028 238.695 233.71 239.569 234.588 240.191C235.474 240.813 236.514 241.124 237.707 241.124C238.491 241.124 239.203 240.988 239.842 240.715C240.482 240.442 241.023 240.05 241.466 239.539C241.909 239.027 242.224 238.414 242.412 237.698H245.429C245.259 238.857 244.837 239.901 244.163 240.83C243.499 241.75 242.616 242.483 241.517 243.029C240.426 243.566 239.156 243.834 237.707 243.834ZM257.817 243.834C256.044 243.834 254.489 243.412 253.151 242.569C251.821 241.725 250.781 240.544 250.031 239.027C249.29 237.51 248.919 235.738 248.919 233.709C248.919 231.664 249.29 229.878 250.031 228.353C250.781 226.827 251.821 225.642 253.151 224.799C254.489 223.955 256.044 223.533 257.817 223.533C259.589 223.533 261.141 223.955 262.47 224.799C263.808 225.642 264.848 226.827 265.589 228.353C266.339 229.878 266.714 231.664 266.714 233.709C266.714 235.738 266.339 237.51 265.589 239.027C264.848 240.544 263.808 241.725 262.47 242.569C261.141 243.412 259.589 243.834 257.817 243.834ZM257.817 241.124C259.163 241.124 260.271 240.779 261.141 240.088C262.01 239.398 262.653 238.49 263.071 237.365C263.489 236.24 263.697 235.022 263.697 233.709C263.697 232.397 263.489 231.174 263.071 230.04C262.653 228.907 262.01 227.99 261.141 227.292C260.271 226.593 259.163 226.243 257.817 226.243C256.47 226.243 255.362 226.593 254.493 227.292C253.624 227.99 252.98 228.907 252.562 230.04C252.145 231.174 251.936 232.397 251.936 233.709C251.936 235.022 252.145 236.24 252.562 237.365C252.98 238.49 253.624 239.398 254.493 240.088C255.362 240.779 256.47 241.124 257.817 241.124ZM274.337 231.613V243.425H271.32V223.789H274.235V226.857H274.49C274.951 225.86 275.65 225.059 276.587 224.453C277.525 223.84 278.735 223.533 280.218 223.533C281.547 223.533 282.711 223.806 283.708 224.351C284.705 224.888 285.48 225.706 286.034 226.806C286.588 227.897 286.865 229.277 286.865 230.948V243.425H283.848V231.152C283.848 229.61 283.448 228.408 282.647 227.547C281.846 226.678 280.746 226.243 279.348 226.243C278.385 226.243 277.525 226.452 276.766 226.87C276.016 227.287 275.424 227.897 274.989 228.698C274.554 229.499 274.337 230.471 274.337 231.613ZM305.521 231.613V243.425H302.504V217.243H305.521V226.857H305.776C306.237 225.843 306.927 225.037 307.847 224.441C308.776 223.836 310.012 223.533 311.555 223.533C312.893 223.533 314.065 223.801 315.07 224.338C316.076 224.867 316.856 225.681 317.41 226.78C317.972 227.871 318.254 229.26 318.254 230.948V243.425H315.237V231.152C315.237 229.593 314.832 228.387 314.022 227.534C313.221 226.674 312.109 226.243 310.685 226.243C309.697 226.243 308.81 226.452 308.026 226.87C307.251 227.287 306.637 227.897 306.185 228.698C305.742 229.499 305.521 230.471 305.521 231.613ZM332.006 243.834C330.114 243.834 328.482 243.417 327.11 242.581C325.746 241.738 324.694 240.561 323.952 239.053C323.219 237.536 322.853 235.772 322.853 233.76C322.853 231.749 323.219 229.976 323.952 228.442C324.694 226.899 325.725 225.698 327.046 224.837C328.375 223.968 329.926 223.533 331.699 223.533C332.722 223.533 333.732 223.703 334.729 224.044C335.726 224.385 336.634 224.939 337.452 225.706C338.27 226.465 338.922 227.471 339.408 228.723C339.894 229.976 340.137 231.519 340.137 233.351V234.63H325V232.022H337.069C337.069 230.914 336.847 229.925 336.404 229.056C335.969 228.186 335.347 227.5 334.537 226.997C333.736 226.495 332.79 226.243 331.699 226.243C330.498 226.243 329.458 226.542 328.58 227.138C327.711 227.726 327.042 228.493 326.573 229.439C326.104 230.385 325.87 231.399 325.87 232.482V234.221C325.87 235.703 326.125 236.961 326.637 237.992C327.157 239.015 327.877 239.794 328.797 240.331C329.718 240.86 330.787 241.124 332.006 241.124C332.799 241.124 333.515 241.013 334.154 240.792C334.801 240.561 335.36 240.221 335.828 239.769C336.297 239.309 336.659 238.738 336.915 238.056L339.83 238.874C339.523 239.863 339.007 240.732 338.283 241.482C337.559 242.223 336.664 242.803 335.598 243.221C334.533 243.63 333.336 243.834 332.006 243.834ZM344.726 243.425V223.789H347.641V226.755H347.846C348.203 225.783 348.851 224.995 349.789 224.39C350.726 223.784 351.783 223.482 352.959 223.482C353.181 223.482 353.458 223.486 353.79 223.495C354.123 223.503 354.374 223.516 354.544 223.533V226.601C354.442 226.576 354.208 226.537 353.841 226.486C353.483 226.426 353.104 226.397 352.703 226.397C351.749 226.397 350.897 226.597 350.147 226.997C349.405 227.39 348.817 227.935 348.382 228.634C347.956 229.324 347.743 230.113 347.743 230.999V243.425H344.726ZM365.756 243.834C363.864 243.834 362.232 243.417 360.86 242.581C359.496 241.738 358.444 240.561 357.702 239.053C356.969 237.536 356.603 235.772 356.603 233.76C356.603 231.749 356.969 229.976 357.702 228.442C358.444 226.899 359.475 225.698 360.796 224.837C362.125 223.968 363.676 223.533 365.449 223.533C366.472 223.533 367.482 223.703 368.479 224.044C369.476 224.385 370.384 224.939 371.202 225.706C372.02 226.465 372.672 227.471 373.158 228.723C373.644 229.976 373.887 231.519 373.887 233.351V234.63H358.75V232.022H370.819C370.819 230.914 370.597 229.925 370.154 229.056C369.719 228.186 369.097 227.5 368.287 226.997C367.486 226.495 366.54 226.243 365.449 226.243C364.248 226.243 363.208 226.542 362.33 227.138C361.461 227.726 360.792 228.493 360.323 229.439C359.854 230.385 359.62 231.399 359.62 232.482V234.221C359.62 235.703 359.875 236.961 360.387 237.992C360.907 239.015 361.627 239.794 362.547 240.331C363.468 240.86 364.537 241.124 365.756 241.124C366.549 241.124 367.265 241.013 367.904 240.792C368.551 240.561 369.11 240.221 369.578 239.769C370.047 239.309 370.409 238.738 370.665 238.056L373.58 238.874C373.273 239.863 372.757 240.732 372.033 241.482C371.309 242.223 370.414 242.803 369.348 243.221C368.283 243.63 367.086 243.834 365.756 243.834ZM12.2547 287.425V285.124L20.8968 275.664C21.911 274.556 22.7462 273.593 23.4025 272.774C24.0587 271.948 24.5445 271.172 24.8599 270.448C25.1837 269.715 25.3456 268.948 25.3456 268.147C25.3456 267.226 25.1241 266.429 24.6809 265.756C24.2462 265.083 23.6496 264.563 22.8911 264.196C22.1326 263.83 21.2803 263.647 20.3343 263.647C19.3286 263.647 18.4508 263.855 17.7008 264.273C16.9593 264.682 16.384 265.257 15.9749 265.999C15.5743 266.74 15.3741 267.61 15.3741 268.607H12.357C12.357 267.073 12.7107 265.726 13.4181 264.567C14.1255 263.408 15.0885 262.505 16.3073 261.857C17.5346 261.209 18.911 260.885 20.4366 260.885C21.9706 260.885 23.33 261.209 24.5147 261.857C25.6993 262.505 26.6283 263.378 27.3016 264.478C27.9749 265.577 28.3116 266.8 28.3116 268.147C28.3116 269.11 28.1368 270.051 27.7874 270.972C27.4465 271.884 26.8499 272.902 25.9976 274.027C25.1539 275.144 23.982 276.507 22.482 278.118L16.6013 284.408V284.613H28.7718V287.425H12.2547ZM37.0463 287.63C36.4156 287.63 35.8744 287.404 35.4227 286.952C34.971 286.5 34.7451 285.959 34.7451 285.328C34.7451 284.698 34.971 284.157 35.4227 283.705C35.8744 283.253 36.4156 283.027 37.0463 283.027C37.677 283.027 38.2182 283.253 38.6699 283.705C39.1216 284.157 39.3474 284.698 39.3474 285.328C39.3474 285.746 39.2409 286.13 39.0278 286.479C38.8233 286.828 38.5463 287.11 38.1969 287.323C37.8559 287.527 37.4724 287.63 37.0463 287.63ZM78.2386 269.425H75.0682C74.8807 268.513 74.5526 267.712 74.0838 267.022C73.6236 266.331 73.0611 265.752 72.3963 265.283C71.7401 264.806 71.0114 264.448 70.2102 264.209C69.4091 263.971 68.5739 263.851 67.7045 263.851C66.1193 263.851 64.6832 264.252 63.3963 265.053C62.1179 265.854 61.0994 267.034 60.3409 268.594C59.5909 270.154 59.2159 272.067 59.2159 274.334C59.2159 276.601 59.5909 278.515 60.3409 280.074C61.0994 281.634 62.1179 282.814 63.3963 283.615C64.6832 284.417 66.1193 284.817 67.7045 284.817C68.5739 284.817 69.4091 284.698 70.2102 284.459C71.0114 284.221 71.7401 283.867 72.3963 283.398C73.0611 282.921 73.6236 282.337 74.0838 281.647C74.5526 280.948 74.8807 280.147 75.0682 279.243H78.2386C78 280.581 77.5653 281.779 76.9347 282.836C76.304 283.892 75.5199 284.792 74.5824 285.533C73.6449 286.266 72.5923 286.824 71.4247 287.208C70.2656 287.591 69.0256 287.783 67.7045 287.783C65.4716 287.783 63.4858 287.238 61.7472 286.147C60.0085 285.056 58.6406 283.505 57.6435 281.493C56.6463 279.482 56.1477 277.096 56.1477 274.334C56.1477 271.573 56.6463 269.186 57.6435 267.175C58.6406 265.164 60.0085 263.613 61.7472 262.522C63.4858 261.431 65.4716 260.885 67.7045 260.885C69.0256 260.885 70.2656 261.077 71.4247 261.461C72.5923 261.844 73.6449 262.407 74.5824 263.148C75.5199 263.881 76.304 264.776 76.9347 265.833C77.5653 266.881 78 268.078 78.2386 269.425ZM85.9698 275.613V287.425H82.9528V261.243H85.9698V270.857H86.2255C86.6857 269.843 87.3761 269.037 88.2965 268.441C89.2255 267.836 90.4613 267.533 92.0039 267.533C93.342 267.533 94.5138 267.801 95.5195 268.338C96.5252 268.867 97.305 269.681 97.859 270.78C98.4215 271.871 98.7028 273.26 98.7028 274.948V287.425H95.6857V275.152C95.6857 273.593 95.2809 272.387 94.4712 271.534C93.6701 270.674 92.5579 270.243 91.1346 270.243C90.146 270.243 89.2596 270.452 88.4755 270.87C87.6999 271.287 87.0863 271.897 86.6346 272.698C86.1914 273.499 85.9698 274.471 85.9698 275.613ZM110.001 287.885C108.756 287.885 107.627 287.651 106.613 287.182C105.599 286.705 104.793 286.019 104.197 285.124C103.6 284.221 103.302 283.13 103.302 281.851C103.302 280.726 103.523 279.814 103.967 279.115C104.41 278.408 105.002 277.854 105.744 277.453C106.485 277.053 107.303 276.755 108.198 276.559C109.102 276.354 110.009 276.192 110.921 276.073C112.114 275.919 113.082 275.804 113.823 275.728C114.573 275.642 115.119 275.502 115.46 275.306C115.809 275.11 115.984 274.769 115.984 274.283V274.181C115.984 272.919 115.638 271.939 114.948 271.24C114.266 270.542 113.231 270.192 111.842 270.192C110.401 270.192 109.272 270.507 108.454 271.138C107.636 271.769 107.06 272.442 106.728 273.158L103.864 272.135C104.376 270.942 105.058 270.013 105.91 269.348C106.771 268.675 107.708 268.206 108.722 267.942C109.745 267.669 110.751 267.533 111.739 267.533C112.37 267.533 113.094 267.61 113.913 267.763C114.739 267.908 115.536 268.211 116.303 268.671C117.079 269.131 117.722 269.826 118.234 270.755C118.745 271.684 119.001 272.928 119.001 274.488V287.425H115.984V284.766H115.83C115.626 285.192 115.285 285.648 114.808 286.134C114.33 286.62 113.695 287.033 112.903 287.374C112.11 287.715 111.143 287.885 110.001 287.885ZM110.461 285.175C111.654 285.175 112.66 284.941 113.478 284.472C114.305 284.003 114.927 283.398 115.344 282.657C115.771 281.915 115.984 281.135 115.984 280.317V277.556C115.856 277.709 115.575 277.85 115.14 277.978C114.714 278.097 114.219 278.203 113.657 278.297C113.103 278.382 112.562 278.459 112.033 278.527C111.513 278.587 111.092 278.638 110.768 278.681C109.984 278.783 109.251 278.949 108.569 279.179C107.896 279.401 107.35 279.738 106.933 280.189C106.523 280.632 106.319 281.238 106.319 282.005C106.319 283.053 106.707 283.846 107.482 284.382C108.266 284.911 109.259 285.175 110.461 285.175ZM127.525 275.613V287.425H124.507V267.789H127.422V270.857H127.678C128.138 269.86 128.837 269.059 129.775 268.453C130.712 267.84 131.922 267.533 133.405 267.533C134.735 267.533 135.898 267.806 136.895 268.351C137.892 268.888 138.668 269.706 139.222 270.806C139.776 271.897 140.053 273.277 140.053 274.948V287.425H137.036V275.152C137.036 273.61 136.635 272.408 135.834 271.547C135.033 270.678 133.934 270.243 132.536 270.243C131.573 270.243 130.712 270.452 129.953 270.87C129.203 271.287 128.611 271.897 128.176 272.698C127.742 273.499 127.525 274.471 127.525 275.613ZM153.492 295.198C152.035 295.198 150.782 295.01 149.734 294.635C148.685 294.269 147.812 293.783 147.113 293.178C146.423 292.581 145.873 291.942 145.464 291.26L147.867 289.573C148.14 289.931 148.485 290.34 148.903 290.8C149.32 291.269 149.891 291.674 150.616 292.015C151.349 292.364 152.308 292.539 153.492 292.539C155.077 292.539 156.386 292.155 157.417 291.388C158.448 290.621 158.964 289.419 158.964 287.783V283.794H158.708C158.487 284.152 158.171 284.596 157.762 285.124C157.362 285.644 156.782 286.108 156.023 286.517C155.273 286.918 154.259 287.118 152.981 287.118C151.396 287.118 149.972 286.743 148.711 285.993C147.458 285.243 146.465 284.152 145.732 282.721C145.008 281.289 144.646 279.55 144.646 277.505C144.646 275.493 144.999 273.742 145.707 272.25C146.414 270.75 147.398 269.591 148.66 268.773C149.921 267.946 151.379 267.533 153.032 267.533C154.31 267.533 155.325 267.746 156.075 268.172C156.833 268.59 157.413 269.067 157.813 269.604C158.222 270.132 158.538 270.567 158.759 270.908H159.066V267.789H161.981V287.988C161.981 289.675 161.597 291.047 160.83 292.104C160.072 293.169 159.049 293.949 157.762 294.444C156.484 294.946 155.06 295.198 153.492 295.198ZM153.39 284.408C154.6 284.408 155.623 284.131 156.458 283.577C157.293 283.023 157.928 282.226 158.363 281.186C158.798 280.147 159.015 278.902 159.015 277.453C159.015 276.039 158.802 274.79 158.376 273.708C157.95 272.625 157.319 271.777 156.484 271.164C155.648 270.55 154.617 270.243 153.39 270.243C152.112 270.243 151.046 270.567 150.194 271.215C149.35 271.863 148.715 272.732 148.289 273.823C147.871 274.914 147.663 276.124 147.663 277.453C147.663 278.817 147.876 280.023 148.302 281.071C148.737 282.111 149.376 282.929 150.219 283.526C151.072 284.114 152.129 284.408 153.39 284.408ZM175.737 287.834C173.844 287.834 172.212 287.417 170.84 286.581C169.477 285.738 168.424 284.561 167.683 283.053C166.95 281.536 166.583 279.772 166.583 277.76C166.583 275.749 166.95 273.976 167.683 272.442C168.424 270.899 169.455 269.698 170.776 268.837C172.106 267.968 173.657 267.533 175.43 267.533C176.452 267.533 177.462 267.703 178.46 268.044C179.457 268.385 180.364 268.939 181.183 269.706C182.001 270.465 182.653 271.471 183.138 272.723C183.624 273.976 183.867 275.519 183.867 277.351V278.63H168.731V276.022H180.799C180.799 274.914 180.577 273.925 180.134 273.056C179.7 272.186 179.077 271.5 178.268 270.997C177.467 270.495 176.521 270.243 175.43 270.243C174.228 270.243 173.188 270.542 172.31 271.138C171.441 271.726 170.772 272.493 170.303 273.439C169.835 274.385 169.6 275.399 169.6 276.482V278.221C169.6 279.703 169.856 280.961 170.367 281.992C170.887 283.015 171.607 283.794 172.528 284.331C173.448 284.86 174.518 285.124 175.737 285.124C176.529 285.124 177.245 285.013 177.884 284.792C178.532 284.561 179.09 284.221 179.559 283.769C180.028 283.309 180.39 282.738 180.646 282.056L183.56 282.874C183.254 283.863 182.738 284.732 182.013 285.482C181.289 286.223 180.394 286.803 179.329 287.221C178.263 287.63 177.066 287.834 175.737 287.834ZM207.121 267.789V270.346H196.945V267.789H207.121ZM199.911 263.084H202.928V281.8C202.928 282.652 203.052 283.292 203.299 283.718C203.555 284.135 203.879 284.417 204.271 284.561C204.671 284.698 205.093 284.766 205.536 284.766C205.869 284.766 206.141 284.749 206.354 284.715C206.567 284.672 206.738 284.638 206.866 284.613L207.479 287.323C207.275 287.399 206.989 287.476 206.623 287.553C206.256 287.638 205.792 287.681 205.229 287.681C204.377 287.681 203.542 287.497 202.724 287.131C201.914 286.765 201.241 286.206 200.704 285.456C200.175 284.706 199.911 283.76 199.911 282.618V263.084ZM215.099 275.613V287.425H212.082V261.243H215.099V270.857H215.354C215.815 269.843 216.505 269.037 217.425 268.441C218.354 267.836 219.59 267.533 221.133 267.533C222.471 267.533 223.643 267.801 224.648 268.338C225.654 268.867 226.434 269.681 226.988 270.78C227.55 271.871 227.832 273.26 227.832 274.948V287.425H224.815V275.152C224.815 273.593 224.41 272.387 223.6 271.534C222.799 270.674 221.687 270.243 220.263 270.243C219.275 270.243 218.388 270.452 217.604 270.87C216.829 271.287 216.215 271.897 215.763 272.698C215.32 273.499 215.099 274.471 215.099 275.613ZM241.584 287.834C239.692 287.834 238.06 287.417 236.688 286.581C235.324 285.738 234.272 284.561 233.53 283.053C232.797 281.536 232.431 279.772 232.431 277.76C232.431 275.749 232.797 273.976 233.53 272.442C234.272 270.899 235.303 269.698 236.624 268.837C237.953 267.968 239.505 267.533 241.277 267.533C242.3 267.533 243.31 267.703 244.307 268.044C245.304 268.385 246.212 268.939 247.03 269.706C247.848 270.465 248.5 271.471 248.986 272.723C249.472 273.976 249.715 275.519 249.715 277.351V278.63H234.578V276.022H246.647C246.647 274.914 246.425 273.925 245.982 273.056C245.547 272.186 244.925 271.5 244.115 270.997C243.314 270.495 242.368 270.243 241.277 270.243C240.076 270.243 239.036 270.542 238.158 271.138C237.289 271.726 236.62 272.493 236.151 273.439C235.682 274.385 235.448 275.399 235.448 276.482V278.221C235.448 279.703 235.703 280.961 236.215 281.992C236.735 283.015 237.455 283.794 238.375 284.331C239.296 284.86 240.365 285.124 241.584 285.124C242.377 285.124 243.093 285.013 243.732 284.792C244.38 284.561 244.938 284.221 245.407 283.769C245.875 283.309 246.238 282.738 246.493 282.056L249.408 282.874C249.101 283.863 248.586 284.732 247.861 285.482C247.137 286.223 246.242 286.803 245.176 287.221C244.111 287.63 242.914 287.834 241.584 287.834ZM272.407 287.834C270.566 287.834 268.98 287.399 267.651 286.53C266.321 285.661 265.299 284.463 264.583 282.938C263.867 281.412 263.509 279.669 263.509 277.709C263.509 275.715 263.875 273.955 264.608 272.429C265.35 270.895 266.381 269.698 267.702 268.837C269.032 267.968 270.583 267.533 272.355 267.533C273.736 267.533 274.98 267.789 276.088 268.3C277.196 268.811 278.104 269.527 278.811 270.448C279.519 271.368 279.958 272.442 280.128 273.669H277.111C276.881 272.774 276.37 271.982 275.577 271.292C274.793 270.593 273.736 270.243 272.407 270.243C271.23 270.243 270.199 270.55 269.313 271.164C268.435 271.769 267.749 272.625 267.255 273.733C266.769 274.833 266.526 276.124 266.526 277.607C266.526 279.124 266.765 280.445 267.242 281.57C267.728 282.695 268.409 283.569 269.287 284.191C270.174 284.813 271.213 285.124 272.407 285.124C273.191 285.124 273.902 284.988 274.542 284.715C275.181 284.442 275.722 284.05 276.165 283.539C276.608 283.027 276.924 282.414 277.111 281.698H280.128C279.958 282.857 279.536 283.901 278.863 284.83C278.198 285.75 277.316 286.483 276.216 287.029C275.125 287.566 273.855 287.834 272.407 287.834ZM292.516 287.834C290.743 287.834 289.188 287.412 287.85 286.569C286.52 285.725 285.48 284.544 284.73 283.027C283.989 281.51 283.618 279.738 283.618 277.709C283.618 275.664 283.989 273.878 284.73 272.353C285.48 270.827 286.52 269.642 287.85 268.799C289.188 267.955 290.743 267.533 292.516 267.533C294.289 267.533 295.84 267.955 297.169 268.799C298.507 269.642 299.547 270.827 300.289 272.353C301.039 273.878 301.414 275.664 301.414 277.709C301.414 279.738 301.039 281.51 300.289 283.027C299.547 284.544 298.507 285.725 297.169 286.569C295.84 287.412 294.289 287.834 292.516 287.834ZM292.516 285.124C293.863 285.124 294.971 284.779 295.84 284.088C296.709 283.398 297.353 282.49 297.77 281.365C298.188 280.24 298.397 279.022 298.397 277.709C298.397 276.397 298.188 275.174 297.77 274.04C297.353 272.907 296.709 271.99 295.84 271.292C294.971 270.593 293.863 270.243 292.516 270.243C291.169 270.243 290.061 270.593 289.192 271.292C288.323 271.99 287.679 272.907 287.262 274.04C286.844 275.174 286.635 276.397 286.635 277.709C286.635 279.022 286.844 280.24 287.262 281.365C287.679 282.49 288.323 283.398 289.192 284.088C290.061 284.779 291.169 285.124 292.516 285.124ZM309.036 275.613V287.425H306.019V267.789H308.934V270.857H309.19C309.65 269.86 310.349 269.059 311.286 268.453C312.224 267.84 313.434 267.533 314.917 267.533C316.246 267.533 317.41 267.806 318.407 268.351C319.404 268.888 320.18 269.706 320.734 270.806C321.288 271.897 321.565 273.277 321.565 274.948V287.425H318.548V275.152C318.548 273.61 318.147 272.408 317.346 271.547C316.545 270.678 315.445 270.243 314.048 270.243C313.085 270.243 312.224 270.452 311.465 270.87C310.715 271.287 310.123 271.897 309.688 272.698C309.254 273.499 309.036 274.471 309.036 275.613ZM340.987 272.186L338.277 272.953C338.106 272.502 337.855 272.063 337.522 271.637C337.199 271.202 336.755 270.844 336.193 270.563C335.63 270.282 334.91 270.141 334.032 270.141C332.831 270.141 331.829 270.418 331.028 270.972C330.235 271.517 329.839 272.212 329.839 273.056C329.839 273.806 330.112 274.398 330.657 274.833C331.203 275.267 332.055 275.63 333.214 275.919L336.129 276.635C337.885 277.061 339.193 277.713 340.054 278.591C340.914 279.461 341.345 280.581 341.345 281.953C341.345 283.078 341.021 284.084 340.373 284.971C339.734 285.857 338.839 286.556 337.689 287.067C336.538 287.578 335.2 287.834 333.674 287.834C331.672 287.834 330.014 287.399 328.701 286.53C327.389 285.661 326.558 284.391 326.208 282.721L329.072 282.005C329.345 283.061 329.86 283.854 330.619 284.382C331.386 284.911 332.387 285.175 333.623 285.175C335.029 285.175 336.146 284.877 336.973 284.28C337.808 283.675 338.225 282.951 338.225 282.107C338.225 281.425 337.987 280.854 337.51 280.394C337.032 279.925 336.299 279.576 335.311 279.346L332.038 278.578C330.24 278.152 328.919 277.492 328.075 276.597C327.24 275.694 326.822 274.564 326.822 273.209C326.822 272.101 327.133 271.121 327.755 270.269C328.386 269.417 329.243 268.747 330.325 268.262C331.416 267.776 332.652 267.533 334.032 267.533C335.975 267.533 337.501 267.959 338.609 268.811C339.725 269.664 340.518 270.789 340.987 272.186ZM354.426 267.789V270.346H344.25V267.789H354.426ZM347.216 263.084H350.233V281.8C350.233 282.652 350.357 283.292 350.604 283.718C350.859 284.135 351.183 284.417 351.575 284.561C351.976 284.698 352.398 284.766 352.841 284.766C353.173 284.766 353.446 284.749 353.659 284.715C353.872 284.672 354.043 284.638 354.17 284.613L354.784 287.323C354.58 287.399 354.294 287.476 353.928 287.553C353.561 287.638 353.097 287.681 352.534 287.681C351.682 287.681 350.847 287.497 350.028 287.131C349.219 286.765 348.545 286.206 348.009 285.456C347.48 284.706 347.216 283.76 347.216 282.618V263.084ZM358.964 287.425V267.789H361.879V270.755H362.084C362.442 269.783 363.089 268.995 364.027 268.39C364.964 267.784 366.021 267.482 367.197 267.482C367.419 267.482 367.696 267.486 368.028 267.495C368.361 267.503 368.612 267.516 368.783 267.533V270.601C368.68 270.576 368.446 270.537 368.08 270.486C367.722 270.426 367.342 270.397 366.942 270.397C365.987 270.397 365.135 270.597 364.385 270.997C363.643 271.39 363.055 271.935 362.621 272.634C362.195 273.324 361.982 274.113 361.982 274.999V287.425H358.964ZM378.137 287.885C376.893 287.885 375.764 287.651 374.75 287.182C373.735 286.705 372.93 286.019 372.333 285.124C371.737 284.221 371.439 283.13 371.439 281.851C371.439 280.726 371.66 279.814 372.103 279.115C372.547 278.408 373.139 277.854 373.88 277.453C374.622 277.053 375.44 276.755 376.335 276.559C377.238 276.354 378.146 276.192 379.058 276.073C380.251 275.919 381.218 275.804 381.96 275.728C382.71 275.642 383.255 275.502 383.596 275.306C383.946 275.11 384.12 274.769 384.12 274.283V274.181C384.12 272.919 383.775 271.939 383.085 271.24C382.403 270.542 381.368 270.192 379.978 270.192C378.538 270.192 377.409 270.507 376.591 271.138C375.772 271.769 375.197 272.442 374.865 273.158L372.001 272.135C372.512 270.942 373.194 270.013 374.047 269.348C374.907 268.675 375.845 268.206 376.859 267.942C377.882 267.669 378.887 267.533 379.876 267.533C380.507 267.533 381.231 267.61 382.049 267.763C382.876 267.908 383.673 268.211 384.44 268.671C385.216 269.131 385.859 269.826 386.37 270.755C386.882 271.684 387.137 272.928 387.137 274.488V287.425H384.12V284.766H383.967C383.762 285.192 383.422 285.648 382.944 286.134C382.467 286.62 381.832 287.033 381.039 287.374C380.247 287.715 379.279 287.885 378.137 287.885ZM378.598 285.175C379.791 285.175 380.797 284.941 381.615 284.472C382.441 284.003 383.064 283.398 383.481 282.657C383.907 281.915 384.12 281.135 384.12 280.317V277.556C383.993 277.709 383.711 277.85 383.277 277.978C382.85 278.097 382.356 278.203 381.794 278.297C381.24 278.382 380.699 278.459 380.17 278.527C379.65 278.587 379.228 278.638 378.904 278.681C378.12 278.783 377.387 278.949 376.706 279.179C376.032 279.401 375.487 279.738 375.069 280.189C374.66 280.632 374.456 281.238 374.456 282.005C374.456 283.053 374.843 283.846 375.619 284.382C376.403 284.911 377.396 285.175 378.598 285.175ZM392.644 287.425V267.789H395.661V287.425H392.644ZM394.178 264.516C393.59 264.516 393.083 264.316 392.657 263.915C392.239 263.515 392.031 263.033 392.031 262.471C392.031 261.908 392.239 261.426 392.657 261.026C393.083 260.625 393.59 260.425 394.178 260.425C394.766 260.425 395.269 260.625 395.687 261.026C396.113 261.426 396.326 261.908 396.326 262.471C396.326 263.033 396.113 263.515 395.687 263.915C395.269 264.316 394.766 264.516 394.178 264.516ZM404.204 275.613V287.425H401.187V267.789H404.102V270.857H404.358C404.818 269.86 405.517 269.059 406.454 268.453C407.392 267.84 408.602 267.533 410.085 267.533C411.414 267.533 412.578 267.806 413.575 268.351C414.572 268.888 415.348 269.706 415.902 270.806C416.456 271.897 416.733 273.277 416.733 274.948V287.425H413.716V275.152C413.716 273.61 413.315 272.408 412.514 271.547C411.713 270.678 410.613 270.243 409.216 270.243C408.252 270.243 407.392 270.452 406.633 270.87C405.883 271.287 405.291 271.897 404.856 272.698C404.422 273.499 404.204 274.471 404.204 275.613ZM430.786 267.789V270.346H420.609V267.789H430.786ZM423.575 263.084H426.592V281.8C426.592 282.652 426.716 283.292 426.963 283.718C427.219 284.135 427.543 284.417 427.935 284.561C428.335 284.698 428.757 284.766 429.2 284.766C429.533 284.766 429.805 284.749 430.018 284.715C430.232 284.672 430.402 284.638 430.53 284.613L431.143 287.323C430.939 287.399 430.653 287.476 430.287 287.553C429.92 287.638 429.456 287.681 428.893 287.681C428.041 287.681 427.206 287.497 426.388 287.131C425.578 286.765 424.905 286.206 424.368 285.456C423.839 284.706 423.575 283.76 423.575 282.618V263.084ZM448.881 272.186L446.171 272.953C446.001 272.502 445.749 272.063 445.417 271.637C445.093 271.202 444.65 270.844 444.087 270.563C443.525 270.282 442.805 270.141 441.927 270.141C440.725 270.141 439.724 270.418 438.923 270.972C438.13 271.517 437.734 272.212 437.734 273.056C437.734 273.806 438.006 274.398 438.552 274.833C439.097 275.267 439.95 275.63 441.109 275.919L444.023 276.635C445.779 277.061 447.087 277.713 447.948 278.591C448.809 279.461 449.239 280.581 449.239 281.953C449.239 283.078 448.915 284.084 448.268 284.971C447.629 285.857 446.734 286.556 445.583 287.067C444.433 287.578 443.094 287.834 441.569 287.834C439.566 287.834 437.908 287.399 436.596 286.53C435.283 285.661 434.452 284.391 434.103 282.721L436.967 282.005C437.239 283.061 437.755 283.854 438.513 284.382C439.281 284.911 440.282 285.175 441.518 285.175C442.924 285.175 444.04 284.877 444.867 284.28C445.702 283.675 446.12 282.951 446.12 282.107C446.12 281.425 445.881 280.854 445.404 280.394C444.927 279.925 444.194 279.576 443.205 279.346L439.933 278.578C438.134 278.152 436.813 277.492 435.969 276.597C435.134 275.694 434.717 274.564 434.717 273.209C434.717 272.101 435.028 271.121 435.65 270.269C436.281 269.417 437.137 268.747 438.219 268.262C439.31 267.776 440.546 267.533 441.927 267.533C443.87 267.533 445.396 267.959 446.504 268.811C447.62 269.664 448.413 270.789 448.881 272.186ZM472.446 267.789V270.346H462.27V267.789H472.446ZM465.235 263.084H468.252V281.8C468.252 282.652 468.376 283.292 468.623 283.718C468.879 284.135 469.203 284.417 469.595 284.561C469.995 284.698 470.417 284.766 470.86 284.766C471.193 284.766 471.466 284.749 471.679 284.715C471.892 284.672 472.062 284.638 472.19 284.613L472.804 287.323C472.599 287.399 472.314 287.476 471.947 287.553C471.581 287.638 471.116 287.681 470.554 287.681C469.701 287.681 468.866 287.497 468.048 287.131C467.238 286.765 466.565 286.206 466.028 285.456C465.5 284.706 465.235 283.76 465.235 282.618V263.084ZM484.75 287.834C482.978 287.834 481.422 287.412 480.084 286.569C478.755 285.725 477.715 284.544 476.965 283.027C476.223 281.51 475.853 279.738 475.853 277.709C475.853 275.664 476.223 273.878 476.965 272.353C477.715 270.827 478.755 269.642 480.084 268.799C481.422 267.955 482.978 267.533 484.75 267.533C486.523 267.533 488.074 267.955 489.404 268.799C490.742 269.642 491.782 270.827 492.523 272.353C493.273 273.878 493.648 275.664 493.648 277.709C493.648 279.738 493.273 281.51 492.523 283.027C491.782 284.544 490.742 285.725 489.404 286.569C488.074 287.412 486.523 287.834 484.75 287.834ZM484.75 285.124C486.097 285.124 487.205 284.779 488.074 284.088C488.944 283.398 489.587 282.49 490.005 281.365C490.422 280.24 490.631 279.022 490.631 277.709C490.631 276.397 490.422 275.174 490.005 274.04C489.587 272.907 488.944 271.99 488.074 271.292C487.205 270.593 486.097 270.243 484.75 270.243C483.404 270.243 482.296 270.593 481.426 271.292C480.557 271.99 479.914 272.907 479.496 274.04C479.078 275.174 478.87 276.397 478.87 277.709C478.87 279.022 479.078 280.24 479.496 281.365C479.914 282.49 480.557 283.398 481.426 284.088C482.296 284.779 483.404 285.124 484.75 285.124ZM522.288 272.186L519.577 272.953C519.407 272.502 519.156 272.063 518.823 271.637C518.499 271.202 518.056 270.844 517.494 270.563C516.931 270.282 516.211 270.141 515.333 270.141C514.131 270.141 513.13 270.418 512.329 270.972C511.536 271.517 511.14 272.212 511.14 273.056C511.14 273.806 511.413 274.398 511.958 274.833C512.504 275.267 513.356 275.63 514.515 275.919L517.43 276.635C519.185 277.061 520.494 277.713 521.354 278.591C522.215 279.461 522.646 280.581 522.646 281.953C522.646 283.078 522.322 284.084 521.674 284.971C521.035 285.857 520.14 286.556 518.989 287.067C517.839 287.578 516.501 287.834 514.975 287.834C512.972 287.834 511.315 287.399 510.002 286.53C508.69 285.661 507.859 284.391 507.509 282.721L510.373 282.005C510.646 283.061 511.161 283.854 511.92 284.382C512.687 284.911 513.688 285.175 514.924 285.175C516.33 285.175 517.447 284.877 518.273 284.28C519.109 283.675 519.526 282.951 519.526 282.107C519.526 281.425 519.288 280.854 518.81 280.394C518.333 279.925 517.6 279.576 516.612 279.346L513.339 278.578C511.54 278.152 510.219 277.492 509.376 276.597C508.54 275.694 508.123 274.564 508.123 273.209C508.123 272.101 508.434 271.121 509.056 270.269C509.687 269.417 510.543 268.747 511.626 268.262C512.717 267.776 513.952 267.533 515.333 267.533C517.276 267.533 518.802 267.959 519.91 268.811C521.026 269.664 521.819 270.789 522.288 272.186ZM535.164 287.834C533.324 287.834 531.738 287.399 530.409 286.53C529.079 285.661 528.056 284.463 527.341 282.938C526.625 281.412 526.267 279.669 526.267 277.709C526.267 275.715 526.633 273.955 527.366 272.429C528.108 270.895 529.139 269.698 530.46 268.837C531.789 267.968 533.341 267.533 535.113 267.533C536.494 267.533 537.738 267.789 538.846 268.3C539.954 268.811 540.862 269.527 541.569 270.448C542.277 271.368 542.716 272.442 542.886 273.669H539.869C539.639 272.774 539.127 271.982 538.335 271.292C537.551 270.593 536.494 270.243 535.164 270.243C533.988 270.243 532.957 270.55 532.071 271.164C531.193 271.769 530.507 272.625 530.012 273.733C529.527 274.833 529.284 276.124 529.284 277.607C529.284 279.124 529.522 280.445 530 281.57C530.485 282.695 531.167 283.569 532.045 284.191C532.931 284.813 533.971 285.124 535.164 285.124C535.949 285.124 536.66 284.988 537.299 284.715C537.939 284.442 538.48 284.05 538.923 283.539C539.366 283.027 539.681 282.414 539.869 281.698H542.886C542.716 282.857 542.294 283.901 541.62 284.83C540.956 285.75 540.074 286.483 538.974 287.029C537.883 287.566 536.613 287.834 535.164 287.834ZM553.075 287.885C551.831 287.885 550.701 287.651 549.687 287.182C548.673 286.705 547.868 286.019 547.271 285.124C546.674 284.221 546.376 283.13 546.376 281.851C546.376 280.726 546.598 279.814 547.041 279.115C547.484 278.408 548.076 277.854 548.818 277.453C549.559 277.053 550.377 276.755 551.272 276.559C552.176 276.354 553.083 276.192 553.995 276.073C555.189 275.919 556.156 275.804 556.897 275.728C557.647 275.642 558.193 275.502 558.534 275.306C558.883 275.11 559.058 274.769 559.058 274.283V274.181C559.058 272.919 558.713 271.939 558.022 271.24C557.341 270.542 556.305 270.192 554.916 270.192C553.475 270.192 552.346 270.507 551.528 271.138C550.71 271.769 550.135 272.442 549.802 273.158L546.939 272.135C547.45 270.942 548.132 270.013 548.984 269.348C549.845 268.675 550.782 268.206 551.797 267.942C552.819 267.669 553.825 267.533 554.814 267.533C555.444 267.533 556.169 267.61 556.987 267.763C557.814 267.908 558.61 268.211 559.377 268.671C560.153 269.131 560.797 269.826 561.308 270.755C561.819 271.684 562.075 272.928 562.075 274.488V287.425H559.058V284.766H558.904C558.7 285.192 558.359 285.648 557.882 286.134C557.404 286.62 556.77 287.033 555.977 287.374C555.184 287.715 554.217 287.885 553.075 287.885ZM553.535 285.175C554.728 285.175 555.734 284.941 556.552 284.472C557.379 284.003 558.001 283.398 558.419 282.657C558.845 281.915 559.058 281.135 559.058 280.317V277.556C558.93 277.709 558.649 277.85 558.214 277.978C557.788 278.097 557.294 278.203 556.731 278.297C556.177 278.382 555.636 278.459 555.108 278.527C554.588 278.587 554.166 278.638 553.842 278.681C553.058 278.783 552.325 278.949 551.643 279.179C550.97 279.401 550.424 279.738 550.007 280.189C549.598 280.632 549.393 281.238 549.393 282.005C549.393 283.053 549.781 283.846 550.556 284.382C551.341 284.911 552.333 285.175 553.535 285.175ZM570.599 261.243V287.425H567.582V261.243H570.599ZM584.358 287.834C582.466 287.834 580.833 287.417 579.461 286.581C578.098 285.738 577.045 284.561 576.304 283.053C575.571 281.536 575.204 279.772 575.204 277.76C575.204 275.749 575.571 273.976 576.304 272.442C577.045 270.899 578.076 269.698 579.397 268.837C580.727 267.968 582.278 267.533 584.051 267.533C585.074 267.533 586.083 267.703 587.081 268.044C588.078 268.385 588.985 268.939 589.804 269.706C590.622 270.465 591.274 271.471 591.76 272.723C592.245 273.976 592.488 275.519 592.488 277.351V278.63H577.352V276.022H589.42C589.42 274.914 589.199 273.925 588.755 273.056C588.321 272.186 587.699 271.5 586.889 270.997C586.088 270.495 585.142 270.243 584.051 270.243C582.849 270.243 581.809 270.542 580.931 271.138C580.062 271.726 579.393 272.493 578.924 273.439C578.456 274.385 578.221 275.399 578.221 276.482V278.221C578.221 279.703 578.477 280.961 578.988 281.992C579.508 283.015 580.228 283.794 581.149 284.331C582.069 284.86 583.139 285.124 584.358 285.124C585.15 285.124 585.866 285.013 586.505 284.792C587.153 284.561 587.711 284.221 588.18 283.769C588.649 283.309 589.011 282.738 589.267 282.056L592.181 282.874C591.875 283.863 591.359 284.732 590.635 285.482C589.91 286.223 589.015 286.803 587.95 287.221C586.885 287.63 585.687 287.834 584.358 287.834Z" fill="black"/>
<path d="M278.455 72.8501V3.03191H320.318V10.5319H286.909V34.1228H317.182V41.6228H286.909V72.8501H278.455ZM349.116 74.0774C345.798 74.0774 342.787 73.4524 340.082 72.2024C337.378 70.9296 335.23 69.1001 333.639 66.7137C332.048 64.3046 331.253 61.3956 331.253 57.9865C331.253 54.9865 331.844 52.5546 333.026 50.691C334.207 48.8046 335.787 47.3274 337.764 46.2592C339.741 45.191 341.923 44.3956 344.31 43.8728C346.719 43.3274 349.139 42.8956 351.571 42.5774C354.753 42.1683 357.332 41.8615 359.31 41.6569C361.31 41.4296 362.764 41.0546 363.673 40.5319C364.605 40.0092 365.071 39.1001 365.071 37.8046V37.5319C365.071 34.1683 364.151 31.5546 362.31 29.691C360.491 27.8274 357.73 26.8956 354.026 26.8956C350.185 26.8956 347.173 27.7365 344.991 29.4183C342.81 31.1001 341.276 32.8956 340.389 34.8046L332.753 32.0774C334.116 28.8955 335.935 26.4183 338.207 24.6456C340.503 22.8501 343.003 21.6001 345.707 20.8956C348.435 20.1683 351.116 19.8046 353.753 19.8046C355.435 19.8046 357.366 20.0092 359.548 20.4183C361.753 20.8046 363.878 21.6115 365.923 22.8387C367.991 24.066 369.707 25.9183 371.071 28.3956C372.435 30.8728 373.116 34.191 373.116 38.3501V72.8501H365.071V65.7592H364.662C364.116 66.8956 363.207 68.1115 361.935 69.4069C360.662 70.7024 358.969 71.8046 356.855 72.7137C354.741 73.6228 352.162 74.0774 349.116 74.0774ZM350.344 66.8501C353.526 66.8501 356.207 66.2251 358.389 64.9751C360.594 63.7251 362.253 62.1115 363.366 60.1342C364.503 58.1569 365.071 56.0774 365.071 53.8956V46.5319C364.73 46.941 363.98 47.316 362.821 47.6569C361.685 47.9751 360.366 48.2592 358.866 48.5092C357.389 48.7365 355.946 48.941 354.537 49.1228C353.151 49.2819 352.026 49.4183 351.162 49.5319C349.071 49.8046 347.116 50.2478 345.298 50.8615C343.503 51.4524 342.048 52.3501 340.935 53.5546C339.844 54.7365 339.298 56.3501 339.298 58.3956C339.298 61.191 340.332 63.3046 342.401 64.7365C344.491 66.1456 347.139 66.8501 350.344 66.8501ZM428.744 20.4865L409.381 72.8501H401.199L381.835 20.4865H390.562L405.017 62.2137H405.562L420.017 20.4865H428.744ZM439.364 72.8501V20.4865H447.409V72.8501H439.364ZM443.455 11.7592C441.886 11.7592 440.534 11.2251 439.398 10.1569C438.284 9.08873 437.727 7.80464 437.727 6.30464C437.727 4.80464 438.284 3.52055 439.398 2.45237C440.534 1.38419 441.886 0.850098 443.455 0.850098C445.023 0.850098 446.364 1.38419 447.477 2.45237C448.614 3.52055 449.182 4.80464 449.182 6.30464C449.182 7.80464 448.614 9.08873 447.477 10.1569C446.364 11.2251 445.023 11.7592 443.455 11.7592ZM483.418 73.941C478.509 73.941 474.281 72.7819 470.736 70.4637C467.19 68.1456 464.463 64.9524 462.554 60.8842C460.645 56.816 459.69 52.1683 459.69 46.941C459.69 41.6228 460.668 36.9296 462.622 32.8615C464.599 28.7706 467.349 25.5774 470.872 23.2819C474.418 20.9637 478.554 19.8046 483.281 19.8046C486.963 19.8046 490.281 20.4865 493.236 21.8501C496.19 23.2137 498.611 25.1228 500.497 27.5774C502.384 30.0319 503.554 32.8956 504.009 36.1683H495.963C495.349 33.7819 493.986 31.6683 491.872 29.8274C489.781 27.9637 486.963 27.0319 483.418 27.0319C480.281 27.0319 477.531 27.8501 475.168 29.4865C472.827 31.1001 470.997 33.3842 469.679 36.3387C468.384 39.2706 467.736 42.7137 467.736 46.6683C467.736 50.7137 468.372 54.2365 469.645 57.2365C470.94 60.2365 472.759 62.566 475.099 64.2251C477.463 65.8842 480.236 66.7137 483.418 66.7137C485.509 66.7137 487.406 66.3501 489.111 65.6228C490.815 64.8956 492.259 63.8501 493.44 62.4865C494.622 61.1228 495.463 59.4865 495.963 57.5774H504.009C503.554 60.6683 502.429 63.4524 500.634 65.9296C498.861 68.3842 496.509 70.3387 493.577 71.7933C490.668 73.2251 487.281 73.941 483.418 73.941ZM537.043 73.941C532.315 73.941 528.168 72.816 524.599 70.566C521.054 68.316 518.281 65.1683 516.281 61.1228C514.304 57.0774 513.315 52.3501 513.315 46.941C513.315 41.4865 514.304 36.7251 516.281 32.6569C518.281 28.5887 521.054 25.4296 524.599 23.1796C528.168 20.9296 532.315 19.8046 537.043 19.8046C541.77 19.8046 545.906 20.9296 549.452 23.1796C553.02 25.4296 555.793 28.5887 557.77 32.6569C559.77 36.7251 560.77 41.4865 560.77 46.941C560.77 52.3501 559.77 57.0774 557.77 61.1228C555.793 65.1683 553.02 68.316 549.452 70.566C545.906 72.816 541.77 73.941 537.043 73.941ZM537.043 66.7137C540.634 66.7137 543.588 65.7933 545.906 63.9524C548.224 62.1115 549.94 59.691 551.054 56.691C552.168 53.691 552.724 50.441 552.724 46.941C552.724 43.441 552.168 40.1796 551.054 37.1569C549.94 34.1342 548.224 31.691 545.906 29.8274C543.588 27.9637 540.634 27.0319 537.043 27.0319C533.452 27.0319 530.497 27.9637 528.179 29.8274C525.861 31.691 524.145 34.1342 523.031 37.1569C521.918 40.1796 521.361 43.441 521.361 46.941C521.361 50.441 521.918 53.691 523.031 56.691C524.145 59.691 525.861 62.1115 528.179 63.9524C530.497 65.7933 533.452 66.7137 537.043 66.7137ZM581.097 41.3501V72.8501H573.051V20.4865H580.824V28.6683H581.506C582.733 26.0092 584.597 23.8728 587.097 22.2592C589.597 20.6228 592.824 19.8046 596.778 19.8046C600.324 19.8046 603.426 20.5319 606.085 21.9865C608.744 23.4183 610.813 25.6001 612.29 28.5319C613.767 31.441 614.506 35.1228 614.506 39.5774V72.8501H606.46V40.1228C606.46 36.0092 605.392 32.8046 603.256 30.5092C601.119 28.191 598.188 27.0319 594.46 27.0319C591.892 27.0319 589.597 27.5887 587.574 28.7024C585.574 29.816 583.994 31.441 582.835 33.5774C581.676 35.7137 581.097 38.3046 581.097 41.3501ZM653.48 10.5319V3.03191H705.844V10.5319H683.889V72.8501H675.435V10.5319H653.48ZM732.162 73.941C727.116 73.941 722.764 72.8274 719.105 70.6001C715.469 68.3501 712.662 65.2137 710.685 61.191C708.73 57.1456 707.753 52.441 707.753 47.0774C707.753 41.7137 708.73 36.9865 710.685 32.8956C712.662 28.7819 715.412 25.5774 718.935 23.2819C722.48 20.9637 726.616 19.8046 731.344 19.8046C734.071 19.8046 736.764 20.2592 739.423 21.1683C742.082 22.0774 744.503 23.5546 746.685 25.6001C748.866 27.6228 750.605 30.3046 751.901 33.6456C753.196 36.9865 753.844 41.1001 753.844 45.9865V49.3956H713.48V42.441H745.662C745.662 39.4865 745.071 36.8501 743.889 34.5319C742.73 32.2137 741.071 30.3842 738.912 29.0433C736.776 27.7024 734.253 27.0319 731.344 27.0319C728.139 27.0319 725.366 27.8274 723.026 29.4183C720.707 30.9865 718.923 33.0319 717.673 35.5546C716.423 38.0774 715.798 40.7819 715.798 43.6683V48.3046C715.798 52.2592 716.48 55.6115 717.844 58.3615C719.23 61.0887 721.151 63.1683 723.605 64.6001C726.06 66.0092 728.912 66.7137 732.162 66.7137C734.276 66.7137 736.185 66.4183 737.889 65.8274C739.616 65.2137 741.105 64.3046 742.355 63.1001C743.605 61.8728 744.571 60.3501 745.253 58.5319L753.026 60.7137C752.207 63.3501 750.832 65.6683 748.901 67.6683C746.969 69.6456 744.582 71.191 741.741 72.3046C738.901 73.3956 735.707 73.941 732.162 73.941ZM766.082 72.8501V20.4865H773.855V28.6683H774.537C775.628 25.8728 777.389 23.7024 779.821 22.1569C782.253 20.5887 785.173 19.8046 788.582 19.8046C792.037 19.8046 794.912 20.5887 797.207 22.1569C799.526 23.7024 801.332 25.8728 802.628 28.6683H803.173C804.514 25.9637 806.526 23.816 809.207 22.2251C811.889 20.6115 815.105 19.8046 818.855 19.8046C823.537 19.8046 827.366 21.2706 830.344 24.2024C833.321 27.1115 834.81 31.6456 834.81 37.8046V72.8501H826.764V37.8046C826.764 33.941 825.707 31.1796 823.594 29.5206C821.48 27.8615 818.991 27.0319 816.128 27.0319C812.446 27.0319 809.594 28.1456 807.571 30.3728C805.548 32.5774 804.537 35.3728 804.537 38.7592V72.8501H796.355V36.9865C796.355 34.0092 795.389 31.6115 793.457 29.7933C791.526 27.9524 789.037 27.0319 785.991 27.0319C783.901 27.0319 781.946 27.5887 780.128 28.7024C778.332 29.816 776.878 31.3615 775.764 33.3387C774.673 35.2933 774.128 37.5546 774.128 40.1228V72.8501H766.082ZM849.52 92.4865V20.4865H857.293V28.8046H858.247C858.838 27.8956 859.656 26.7365 860.702 25.3274C861.77 23.8956 863.293 22.6228 865.27 21.5092C867.27 20.3728 869.974 19.8046 873.384 19.8046C877.793 19.8046 881.679 20.9069 885.043 23.1115C888.406 25.316 891.031 28.441 892.918 32.4865C894.804 36.5319 895.747 41.3046 895.747 46.8046C895.747 52.3501 894.804 57.1569 892.918 61.2251C891.031 65.2706 888.418 68.4069 885.077 70.6342C881.736 72.8387 877.884 73.941 873.52 73.941C870.156 73.941 867.463 73.3842 865.44 72.2706C863.418 71.1342 861.861 69.8501 860.77 68.4183C859.679 66.9637 858.838 65.7592 858.247 64.8046H857.565V92.4865H849.52ZM857.429 46.6683C857.429 50.6228 858.009 54.1115 859.168 57.1342C860.327 60.1342 862.02 62.4865 864.247 64.191C866.474 65.8728 869.202 66.7137 872.429 66.7137C875.793 66.7137 878.599 65.8274 880.849 64.0546C883.122 62.2592 884.827 59.8501 885.963 56.8274C887.122 53.7819 887.702 50.3956 887.702 46.6683C887.702 42.9865 887.134 39.6683 885.997 36.7137C884.884 33.7365 883.19 31.3842 880.918 29.6569C878.668 27.9069 875.838 27.0319 872.429 27.0319C869.156 27.0319 866.406 27.8615 864.179 29.5206C861.952 31.1569 860.27 33.4524 859.134 36.4069C857.997 39.3387 857.429 42.7592 857.429 46.6683ZM916.065 3.03191V72.8501H908.02V3.03191H916.065ZM946.21 74.0774C942.892 74.0774 939.881 73.4524 937.176 72.2024C934.472 70.9296 932.324 69.1001 930.733 66.7137C929.142 64.3046 928.347 61.3956 928.347 57.9865C928.347 54.9865 928.938 52.5546 930.119 50.691C931.301 48.8046 932.881 47.3274 934.858 46.2592C936.835 45.191 939.017 44.3956 941.403 43.8728C943.813 43.3274 946.233 42.8956 948.665 42.5774C951.847 42.1683 954.426 41.8615 956.403 41.6569C958.403 41.4296 959.858 41.0546 960.767 40.5319C961.699 40.0092 962.165 39.1001 962.165 37.8046V37.5319C962.165 34.1683 961.244 31.5546 959.403 29.691C957.585 27.8274 954.824 26.8956 951.119 26.8956C947.278 26.8956 944.267 27.7365 942.085 29.4183C939.903 31.1001 938.369 32.8956 937.483 34.8046L929.847 32.0774C931.21 28.8955 933.028 26.4183 935.301 24.6456C937.597 22.8501 940.097 21.6001 942.801 20.8956C945.528 20.1683 948.21 19.8046 950.847 19.8046C952.528 19.8046 954.46 20.0092 956.642 20.4183C958.847 20.8046 960.972 21.6115 963.017 22.8387C965.085 24.066 966.801 25.9183 968.165 28.3956C969.528 30.8728 970.21 34.191 970.21 38.3501V72.8501H962.165V65.7592H961.756C961.21 66.8956 960.301 68.1115 959.028 69.4069C957.756 70.7024 956.063 71.8046 953.949 72.7137C951.835 73.6228 949.256 74.0774 946.21 74.0774ZM947.438 66.8501C950.619 66.8501 953.301 66.2251 955.483 64.9751C957.688 63.7251 959.347 62.1115 960.46 60.1342C961.597 58.1569 962.165 56.0774 962.165 53.8956V46.5319C961.824 46.941 961.074 47.316 959.915 47.6569C958.778 47.9751 957.46 48.2592 955.96 48.5092C954.483 48.7365 953.04 48.941 951.631 49.1228C950.244 49.2819 949.119 49.4183 948.256 49.5319C946.165 49.8046 944.21 50.2478 942.392 50.8615C940.597 51.4524 939.142 52.3501 938.028 53.5546C936.938 54.7365 936.392 56.3501 936.392 58.3956C936.392 61.191 937.426 63.3046 939.494 64.7365C941.585 66.1456 944.233 66.8501 947.438 66.8501ZM1007.67 20.4865V27.3046H980.531V20.4865H1007.67ZM988.44 7.94101H996.486V57.8501C996.486 60.1228 996.815 61.8274 997.474 62.9637C998.156 64.0774 999.02 64.8274 1000.07 65.2137C1001.13 65.5774 1002.26 65.7592 1003.44 65.7592C1004.33 65.7592 1005.05 65.7137 1005.62 65.6228C1006.19 65.5092 1006.64 65.4183 1006.99 65.3501L1008.62 72.5774C1008.08 72.7819 1007.32 72.9865 1006.34 73.191C1005.36 73.4183 1004.12 73.5319 1002.62 73.5319C1000.35 73.5319 998.122 73.0433 995.94 72.066C993.781 71.0887 991.986 69.6001 990.554 67.6001C989.145 65.6001 988.44 63.0774 988.44 60.0319V7.94101ZM1041.16 73.941C1036.12 73.941 1031.76 72.8274 1028.11 70.6001C1024.47 68.3501 1021.66 65.2137 1019.68 61.191C1017.73 57.1456 1016.75 52.441 1016.75 47.0774C1016.75 41.7137 1017.73 36.9865 1019.68 32.8956C1021.66 28.7819 1024.41 25.5774 1027.93 23.2819C1031.48 20.9637 1035.62 19.8046 1040.34 19.8046C1043.07 19.8046 1045.76 20.2592 1048.42 21.1683C1051.08 22.0774 1053.5 23.5546 1055.68 25.6001C1057.87 27.6228 1059.61 30.3046 1060.9 33.6456C1062.2 36.9865 1062.84 41.1001 1062.84 45.9865V49.3956H1022.48V42.441H1054.66C1054.66 39.4865 1054.07 36.8501 1052.89 34.5319C1051.73 32.2137 1050.07 30.3842 1047.91 29.0433C1045.78 27.7024 1043.25 27.0319 1040.34 27.0319C1037.14 27.0319 1034.37 27.8274 1032.03 29.4183C1029.71 30.9865 1027.92 33.0319 1026.67 35.5546C1025.42 38.0774 1024.8 40.7819 1024.8 43.6683V48.3046C1024.8 52.2592 1025.48 55.6115 1026.84 58.3615C1028.23 61.0887 1030.15 63.1683 1032.61 64.6001C1035.06 66.0092 1037.91 66.7137 1041.16 66.7137C1043.28 66.7137 1045.18 66.4183 1046.89 65.8274C1048.62 65.2137 1050.11 64.3046 1051.36 63.1001C1052.61 61.8728 1053.57 60.3501 1054.25 58.5319L1062.03 60.7137C1061.21 63.3501 1059.83 65.6683 1057.9 67.6683C1055.97 69.6456 1053.58 71.191 1050.74 72.3046C1047.9 73.3956 1044.71 73.941 1041.16 73.941Z" fill="black"/>
<defs>
<clipPath id="clip0_0_1">
<rect width="243" height="270" fill="white" transform="translate(13 409)"/>
</clipPath>
<clipPath id="clip1_0_1">
<rect width="512" height="512" fill="white" transform="translate(330 409)"/>
</clipPath>
<clipPath id="clip2_0_1">
<rect width="192" height="192" fill="white" transform="translate(902 409)"/>
</clipPath>
<clipPath id="clip3_0_1">
<rect width="172.8" height="192" fill="white" transform="translate(911.244 409)"/>
</clipPath>
<clipPath id="clip4_0_1">
<rect width="118.8" height="132" fill="white" transform="translate(1184.36 433)"/>
</clipPath>
<clipPath id="clip5_0_1">
<rect width="32" height="32" fill="white" transform="translate(1394 409)"/>
</clipPath>
<clipPath id="clip6_0_1">
<rect width="28.8" height="32" fill="white" transform="translate(1395.54 409)"/>
</clipPath>
</defs>
</svg>
